<?xml version="1.0" standalone="no"?>
<!DOCTYPE svg PUBLIC "-//W3C//DTD SVG 20010904//EN"
 "http://www.w3.org/TR/2001/REC-SVG-20010904/DTD/svg10.dtd">
<svg version="1.0" xmlns="http://www.w3.org/2000/svg"
 width="512.000000pt" height="512.000000pt" viewBox="0 0 512.000000 512.000000"
 preserveAspectRatio="xMidYMid meet">
<metadata>
Created by potrace 1.14, written by Peter Selinger 2001-2017
</metadata>
<g transform="translate(0.000000,512.000000) scale(0.100000,-0.100000)"
fill="#000000" stroke="none">
<path d="M1990 3454 c-163 -19 -296 -42 -410 -70 -156 -39 -206 -55 -225 -75
-7 -8 -23 -72 -35 -144 -11 -71 -26 -150 -32 -175 l-11 -45 -114 -2 c-63 -1
-120 -6 -126 -12 -14 -11 -34 -94 -51 -213 l-12 -83 -116 -3 -116 -3 -22 31
c-30 41 -70 60 -130 60 -45 0 -55 -4 -91 -38 -34 -31 -42 -46 -46 -84 -17
-148 162 -215 260 -98 l26 31 108 -3 108 -3 11 -157 c7 -86 14 -161 18 -166 3
-5 54 -14 113 -21 167 -19 163 -17 163 -55 0 -40 15 -125 42 -238 l20 -88 137
-44 c151 -49 332 -87 521 -112 140 -18 756 -36 780 -23 8 4 82 15 163 24 263
28 685 110 713 139 12 11 42 134 69 286 24 130 15 120 103 121 42 1 111 4 152
8 l74 6 13 45 c7 25 18 95 26 155 l12 110 108 3 108 3 44 -46 c42 -43 47 -45
100 -45 99 0 149 45 149 136 0 59 -19 95 -67 124 -63 39 -160 16 -197 -47
l-20 -34 -112 3 -113 3 -2 40 c-10 156 -26 271 -39 281 -17 13 -144 34 -209
34 -24 0 -46 4 -50 10 -3 5 -10 47 -16 92 -5 46 -16 106 -23 133 l-12 50 -79
23 c-201 57 -526 118 -840 158 -123 15 -733 29 -825 18z m-3 -392 c111 -42
211 -141 254 -249 30 -75 33 -252 6 -323 -40 -105 -145 -213 -247 -254 -161
-65 -362 -19 -480 110 -90 100 -126 199 -117 330 11 186 144 347 328 399 70
19 187 14 256 -13z m1266 13 c136 -35 235 -117 296 -244 35 -73 36 -80 36
-186 0 -103 -2 -114 -32 -177 -106 -224 -363 -323 -580 -223 -71 32 -178 139
-215 216 -82 168 -45 361 96 502 107 109 254 150 399 112z m-1854 -924 c36
-11 92 -27 124 -35 l57 -17 0 -49 0 -50 -27 11 c-42 15 -222 132 -228 146 -6
17 -4 17 74 -6z m2225 -12 c-36 -40 -233 -159 -264 -159 -13 0 -13 97 -1 105
16 9 276 83 280 79 2 -2 -4 -13 -15 -25z m-1902 -70 c51 -11 105 -25 119 -30
15 -6 37 -12 50 -13 13 -2 79 -11 147 -21 l122 -19 0 -88 c0 -71 -3 -88 -15
-88 -26 0 -240 52 -249 61 -5 4 -8 37 -7 73 1 37 -2 67 -8 71 -8 4 -11 -17
-11 -64 0 -39 -2 -71 -5 -71 -15 0 -139 47 -200 76 l-70 33 0 50 c0 60 -4 59
127 30z m1608 -52 c0 -52 -1 -54 -37 -72 -60 -28 -226 -85 -235 -79 -4 3 -8
38 -8 79 l0 74 78 16 c42 9 91 21 107 25 17 5 45 9 63 9 l32 1 0 -53z m-292
-84 l-3 -78 -85 -21 c-47 -12 -109 -25 -137 -29 l-53 -7 0 91 c0 50 3 91 8 92
4 0 48 6 97 13 50 7 109 14 133 15 l43 1 -3 -77z m-585 30 c4 -2 7 -45 7 -95
l0 -91 -108 7 c-60 4 -122 10 -138 15 -29 7 -29 8 -32 95 l-3 88 133 -7 c73
-4 136 -9 141 -12z m297 -72 c0 -105 11 -98 -162 -108 l-118 -6 0 96 0 96 93
4 c50 1 113 4 140 5 l47 2 0 -89z"/>
<path d="M1800 2613 c-62 -19 -90 -56 -90 -121 0 -49 28 -86 76 -102 63 -21
125 13 145 79 9 32 8 44 -6 74 -24 50 -83 83 -125 70z"/>
<path d="M3123 2608 c-70 -19 -104 -104 -66 -169 17 -29 67 -59 98 -59 31 0
81 30 98 59 52 89 -30 196 -130 169z"/>
</g>
</svg>
