<?xml version="1.0" standalone="no"?>
<!DOCTYPE svg PUBLIC "-//W3C//DTD SVG 20010904//EN"
 "http://www.w3.org/TR/2001/REC-SVG-20010904/DTD/svg10.dtd">
<svg version="1.0" xmlns="http://www.w3.org/2000/svg"
 width="512.000000pt" height="512.000000pt" viewBox="0 0 512.000000 512.000000"
 preserveAspectRatio="xMidYMid meet">
<metadata>
Created by potrace 1.14, written by Peter Selinger 2001-2017
</metadata>
<g transform="translate(0.000000,512.000000) scale(0.100000,-0.100000)"
fill="#000000" stroke="none">
<path d="M1995 3464 c-16 -2 -70 -9 -120 -15 -220 -26 -515 -102 -534 -137 -5
-9 -18 -71 -30 -137 -12 -66 -25 -140 -30 -165 -5 -25 -7 -49 -4 -54 4 -5 -11
-6 -36 -2 -46 7 -192 -2 -211 -14 -15 -9 -47 -141 -56 -231 l-7 -69 -112 0
c-110 0 -113 1 -129 25 -43 66 -151 87 -217 42 -96 -64 -87 -212 15 -261 71
-34 162 -12 202 49 16 24 20 25 118 25 l102 0 11 -160 c6 -88 14 -163 17 -168
3 -5 56 -15 118 -21 163 -17 158 -15 158 -59 0 -20 5 -57 11 -82 6 -25 12 -58
15 -75 6 -52 37 -155 48 -164 42 -34 424 -127 616 -151 52 -6 106 -13 120 -16
47 -8 695 -22 700 -15 3 4 77 16 165 25 260 29 695 112 722 139 6 7 29 100 51
207 l38 195 155 10 154 10 12 50 c7 28 18 98 25 158 l12 107 103 0 103 0 43
-45 c42 -43 46 -45 101 -45 65 0 106 17 134 58 46 64 37 144 -23 202 -64 62
-183 49 -227 -27 l-20 -33 -109 0 -109 0 0 49 c0 97 -21 256 -36 272 -16 18
-132 39 -214 39 l-49 0 -6 58 c-14 118 -36 207 -55 223 -45 39 -525 136 -915
185 -122 15 -738 29 -820 18z m-28 -425 c208 -77 327 -301 268 -505 -58 -202
-269 -340 -467 -305 -87 15 -160 54 -229 121 -163 160 -169 414 -13 581 87 92
170 127 301 128 61 1 98 -5 140 -20z m1372 -15 c69 -36 141 -101 179 -161 104
-164 72 -388 -73 -521 -176 -161 -409 -158 -575 8 -167 167 -170 415 -8 586
85 90 180 125 323 120 87 -3 107 -7 154 -32z m-1878 -901 l99 -26 0 -40 c0
-47 3 -48 -119 28 -123 76 -123 77 20 38z m2159 23 c0 -12 -234 -156 -253
-156 -4 0 -7 19 -7 43 l0 43 123 36 c131 38 137 40 137 34z m-1903 -86 c48
-11 98 -22 111 -25 20 -5 22 -11 22 -70 0 -48 -3 -65 -14 -65 -13 0 -171 61
-207 81 -14 7 -19 21 -19 54 0 25 4 45 10 45 5 0 49 -9 97 -20z m1583 -51 c0
-57 8 -51 -152 -110 l-78 -28 0 72 0 73 98 20 c141 31 132 32 132 -27z m-1265
-10 c50 -7 96 -16 103 -22 19 -15 16 -146 -3 -154 -9 -3 -65 7 -125 23 l-110
28 0 74 c0 72 1 74 23 69 12 -3 63 -11 112 -18z m983 -75 l-3 -69 -70 -17
c-38 -9 -94 -20 -123 -24 l-53 -6 3 83 3 84 115 16 c63 8 119 12 123 9 4 -4 7
-38 5 -76z m-665 40 l77 -6 0 -85 0 -86 -104 6 c-57 4 -111 9 -120 13 -13 5
-16 21 -16 83 0 43 3 81 7 84 3 4 22 5 42 2 20 -2 71 -7 114 -11z m377 -78 l0
-84 -47 -6 c-27 -3 -83 -8 -125 -12 l-78 -6 0 90 0 91 63 4 c34 2 90 4 125 5
l62 2 0 -84z"/>
<path d="M1756 2601 c-37 -25 -55 -57 -56 -99 0 -73 52 -122 131 -122 33 0 47
6 75 34 28 28 34 42 34 75 0 23 -7 55 -15 71 -30 58 -113 77 -169 41z"/>
<path d="M3100 2608 c-43 -23 -72 -77 -66 -123 7 -59 60 -105 121 -105 113 0
162 137 77 214 -27 23 -99 31 -132 14z"/>
</g>
</svg>
